<svg width="250" height="68" fill="none" xmlns="http://www.w3.org/2000/svg"><path d="M34.376 63.209c-3.761.66-7.588.858-11.547 1.386L10.755 29.23v36.882c-3.761.396-7.192.924-10.755 1.452V0h10.03l13.723 38.335V0h10.623v63.209ZM55.16 24.743c4.09 0 10.359-.198 14.12-.198V35.1c-4.685 0-10.161 0-14.12.198v15.704c6.202-.396 12.404-.924 18.672-1.122v10.16l-29.23 2.31V0h29.23v10.557H55.16v14.186Zm57.93-14.186h-10.952V59.12c-3.563 0-7.126 0-10.557.131V10.557H80.63V0h32.462l-.001 10.557Zm17.155 13.46h14.45v10.557h-14.45v23.95h-10.359V0h29.494v10.557h-19.135v13.46Zm36.289 25.27c6.005.132 12.075.595 17.947.924v10.425c-9.435-.594-18.87-1.187-28.503-1.386V0h10.556v49.287Zm26.854 12.075c3.365.198 6.928.396 10.359.791V0h-10.359v61.362ZM250 0l-13.394 32.133L250 67.564c-3.959-.528-7.918-1.254-11.877-1.914l-7.587-19.53-7.719 17.947c-3.828-.66-7.523-.858-11.349-1.386l13.592-30.945L212.787 0h11.348l6.928 17.749L238.453 0H250Z" fill="#D81F26"/></svg>